<svg xmlns="http://www.w3.org/2000/svg" viewBox="0 0 102 24" fill="none" aria-hidden="true">
  <path
    fill="currentColor"
    d="M 15.322 10.493 L 19.928 0 H 16.1 l -4.605 10.493 h 3.826 Z m -2.451 11.195 v -3.68 c 0 -2.782 -0.35 -3.588 -1.401 -5.903 L 5.918 0 H 2 l 7.096 15.486 v 6.202 h 3.775 Z M 54.68 22 c 1.737 0 3.177 -0.806 4.163 -2.34 l 0.195 2.028 h 3.424 V 0 h -3.71 v 7.84 c -0.934 -1.404 -2.296 -2.158 -3.917 -2.158 c -3.58 0 -6.071 3.03 -6.071 8.27 c 0 5.175 2.426 8.048 5.915 8.048 Z m 22.752 -1.365 v -3.03 c -1.154 0.78 -3.074 1.47 -4.89 1.47 c -2.698 0 -3.736 -1.288 -3.892 -3.901 h 8.938 v -1.977 c 0 -5.46 -2.4 -7.515 -6.097 -7.515 c -4.514 0 -6.668 3.459 -6.668 8.204 c 0 5.462 2.686 8.114 7.407 8.114 c 2.374 0 4.113 -0.624 5.202 -1.365 Z M 37.557 10.428 c 0.687 -0.845 1.777 -1.56 3.113 -1.56 c 1.31 0 1.894 0.559 1.894 1.742 v 11.078 h 3.71 V 10.233 c 0 -3.12 -1.245 -4.486 -4.268 -4.486 c -2.205 0 -3.515 0.806 -4.268 1.56 h -0.181 l -0.091 -1.313 h -3.62 v 15.694 h 3.71 v -11.26 Z m -6.733 0.559 c 0 -3.81 -1.92 -5.24 -5.85 -5.24 c -2.452 0 -4.385 0.78 -5.513 1.43 v 3.095 c 0.998 -0.754 3.178 -1.56 5.085 -1.56 c 1.764 0 2.581 0.624 2.581 2.301 v 0.884 h -0.597 c -5.668 0 -8.185 1.873 -8.185 5.045 c 0 3.186 1.933 4.967 4.8 4.967 c 2.179 0 3.113 -0.715 3.826 -1.47 h 0.156 c 0.026 0.404 0.156 0.937 0.273 1.249 h 3.619 a 37.98 37.98 0 0 1 -0.195 -3.836 v -6.865 Z m 58.012 10.7 H 93 l -5.098 -8.074 l 4.41 -7.619 h -3.697 L 85.93 10.74 l -2.984 -4.746 H 78.77 l 4.735 7.515 l -4.916 8.179 h 3.762 l 3.152 -5.305 l 3.334 5.305 Z M 55.77 8.622 c 1.984 0 2.983 1.586 2.983 5.2 c 0 3.654 -1.05 5.254 -3.139 5.254 c -2.024 0 -3.022 -1.56 -3.022 -5.123 c 0 -3.72 1.063 -5.331 3.178 -5.331 Z m 15.657 0 c 1.842 0 2.4 1.52 2.4 3.484 v 0.312 h -5.176 c 0.104 -2.496 0.999 -3.796 2.776 -3.796 Z m -44.3 9.322 c -0.467 0.69 -1.336 1.248 -2.646 1.248 c -1.557 0 -2.335 -0.87 -2.335 -2.21 c 0 -1.781 1.271 -2.431 4.45 -2.431 h 0.531 v 3.393 Z"
  />
</svg>
